<?xml version="1.0" encoding="UTF-8" standalone="no"?>
<!-- Uploaded to: SVG Repo, www.svgrepo.com, Transformed by: SVG Repo Mixer Tools -->

<svg
   fill="#ffffff"
   height="800px"
   width="800px"
   version="1.1"
   id="Capa_1"
   viewBox="0 0 300 300"
   xml:space="preserve"
   sodipodi:docname="empty-circle-svgrepo-com2.svg"
   inkscape:version="1.4 (e7c3feb100, 2024-10-09)"
   xmlns:inkscape="http://www.inkscape.org/namespaces/inkscape"
   xmlns:sodipodi="http://sodipodi.sourceforge.net/DTD/sodipodi-0.dtd"
   xmlns="http://www.w3.org/2000/svg"
   xmlns:svg="http://www.w3.org/2000/svg"><defs
   id="defs1" /><sodipodi:namedview
   id="namedview1"
   pagecolor="#464646"
   bordercolor="#000000"
   borderopacity="0.25"
   inkscape:showpageshadow="2"
   inkscape:pageopacity="0.0"
   inkscape:pagecheckerboard="0"
   inkscape:deskcolor="#d1d1d1"
   inkscape:zoom="0.7575"
   inkscape:cx="400"
   inkscape:cy="400"
   inkscape:window-width="1600"
   inkscape:window-height="817"
   inkscape:window-x="0"
   inkscape:window-y="0"
   inkscape:window-maximized="1"
   inkscape:current-layer="Capa_1" />

<g
   id="SVGRepo_bgCarrier"
   stroke-width="0" />

<g
   id="SVGRepo_tracerCarrier"
   stroke-linecap="round"
   stroke-linejoin="round" />

<g
   id="SVGRepo_iconCarrier"> <path
   d="M150,0C67.29,0,0,67.29,0,150s67.29,150,150,150s150-67.29,150-150S232.71,0,150,0z M150,270c-66.169,0-120-53.832-120-120 S83.831,30,150,30s120,53.832,120,120S216.168,270,150,270z"
   id="path1" /> </g><g
   id="SVGRepo_bgCarrier-7"
   stroke-width="0"
   transform="matrix(0.975,0,0,0.975,0.02373418,0.02373418)" /><g
   id="SVGRepo_tracerCarrier-5"
   stroke-linecap="round"
   stroke-linejoin="round"
   transform="matrix(0.975,0,0,0.975,0.02373418,0.02373418)" /><g
   id="SVGRepo_iconCarrier-3"
   transform="matrix(0.975,0,0,0.975,3.75,3.75)"> <path
   d="M 150,0 C 67.29,0 0,67.29 0,150 0,232.71 67.29,300 150,300 232.71,300 300,232.71 300,150 300,67.29 232.71,0 150,0 Z m 0,270 C 83.831,270 30,216.168 30,150 30,83.832 83.831,30 150,30 c 66.169,0 120,53.832 120,120 0,66.168 -53.832,120 -120,120 z"
   id="path1-5" /> </g>

</svg>
